HIERARCHY
ROOT Hips
{
	OFFSET 0.00000 0.00000 0.00000
	CHANNELS 6 Xposition Yposition Zposition Zrotation Yrotation Xrotation 
	JOINT LHipJoint
	{
		OFFSET 0 0 0
		CHANNELS 3 Zrotation Yrotation Xrotation
		JOINT LeftUpLeg
		{
			OFFSET 1.64577 -1.42384 0.94276
			CHANNELS 3 Zrotation Yrotation Xrotation
			JOINT LeftLeg
			{
				OFFSET 2.11538 -5.81197 0.00000
				CHANNELS 3 Zrotation Yrotation Xrotation
				JOINT LeftFoot
				{
					OFFSET 2.36541 -6.49893 0.00000
					CHANNELS 3 Zrotation Yrotation Xrotation
					JOINT LeftToeBase
					{
						OFFSET 0.17759 -0.48793 1.73865
						CHANNELS 3 Zrotation Yrotation Xrotation
						End Site
						{
							OFFSET 0.00000 -0.00000 0.91205
						}
					}
				}
			}
		}
	}
	JOINT RHipJoint
	{
		OFFSET 0 0 0
		CHANNELS 3 Zrotation Yrotation Xrotation
		JOINT RightUpLeg
		{
			OFFSET -1.43750 -1.42384 0.94276
			CHANNELS 3 Zrotation Yrotation Xrotation
			JOINT RightLeg
			{
				OFFSET -2.10480 -5.78291 0.00000
				CHANNELS 3 Zrotation Yrotation Xrotation
				JOINT RightFoot
				{
					OFFSET -2.34880 -6.45329 0.00000
					CHANNELS 3 Zrotation Yrotation Xrotation
					JOINT RightToeBase
					{
						OFFSET -0.22842 -0.62757 1.80469
						CHANNELS 3 Zrotation Yrotation Xrotation
						End Site
						{
							OFFSET -0.00000 -0.00000 0.95886
						}
					}
				}
			}
		}
	}
	JOINT LowerBack
	{
		OFFSET 0 0 0
		CHANNELS 3 Zrotation Yrotation Xrotation
		JOINT Spine
		{
			OFFSET 0.06217 1.93758 -0.49272
			CHANNELS 3 Zrotation Yrotation Xrotation
			JOINT Spine1
			{
				OFFSET -0.03114 2.03621 -0.05830
				CHANNELS 3 Zrotation Yrotation Xrotation
				JOINT Neck
				{
					OFFSET 0 0 0
					CHANNELS 3 Zrotation Yrotation Xrotation
					JOINT Neck1
					{
						OFFSET 0.04421 1.41010 0.26562
						CHANNELS 3 Zrotation Yrotation Xrotation
						JOINT Head
						{
							OFFSET -0.13407 1.43847 0.06181
							CHANNELS 3 Zrotation Yrotation Xrotation
							End Site
							{
								OFFSET -0.04980 1.45844 -0.00689
							}
						}
					}
				}
				JOINT LeftShoulder
				{
					OFFSET 0 0 0
					CHANNELS 3 Zrotation Yrotation Xrotation
					JOINT LeftArm
					{
						OFFSET 2.18382 1.47753 -0.35694
						CHANNELS 3 Zrotation Yrotation Xrotation
						JOINT LeftForeArm
						{
							OFFSET 5.05460 -0.00000 0.00000
							CHANNELS 3 Zrotation Yrotation Xrotation
							JOINT LeftHand
							{
								OFFSET 3.39013 -0.00000 0.00000
								CHANNELS 3 Zrotation Yrotation Xrotation
								JOINT LeftFingerBase
								{
									OFFSET 0 0 0
									CHANNELS 3 Zrotation Yrotation Xrotation
									JOINT LeftHandIndex1
									{
										OFFSET 0.57242 -0.00000 -0.00000
										CHANNELS 3 Zrotation Yrotation Xrotation
										End Site
										{
											OFFSET 0.46150 -0.00000 -0.00000
										}
									}
								}
								JOINT LThumb
								{
									OFFSET 0 0 0
									CHANNELS 3 Zrotation Yrotation Xrotation
									End Site
									{
										OFFSET 0.46855 -0.00000 0.46855
									}
								}
							}
						}
					}
				}
				JOINT RightShoulder
				{
					OFFSET 0 0 0
					CHANNELS 3 Zrotation Yrotation Xrotation
					JOINT RightArm
					{
						OFFSET -2.06033 1.72839 -0.47437
						CHANNELS 3 Zrotation Yrotation Xrotation
						JOINT RightForeArm
						{
							OFFSET -5.07010 -0.00000 0.00000
							CHANNELS 3 Zrotation Yrotation Xrotation
							JOINT RightHand
							{
								OFFSET -3.14957 -0.00000 -0.00000
								CHANNELS 3 Zrotation Yrotation Xrotation
								JOINT RightFingerBase
								{
									OFFSET 0 0 0
									CHANNELS 3 Zrotation Yrotation Xrotation
									JOINT RightHandIndex1
									{
										OFFSET -0.71819 -0.00000 -0.00000
										CHANNELS 3 Zrotation Yrotation Xrotation
										End Site
										{
											OFFSET -0.57902 -0.00000 -0.00000
										}
									}
								}
								JOINT RThumb
								{
									OFFSET 0 0 0
									CHANNELS 3 Zrotation Yrotation Xrotation
									End Site
									{
										OFFSET -0.58786 -0.00000 0.58786
									}
								}
							}
						}
					}
				}
			}
		}
	}
}
MOTION
Frames: 7
Frame Time: .0083333
-27.492 15.0422 -16.3716 0 0 0 0 0 0 -21 0 0 0 0 0 0 0 0 0 0 0 0 0 0 21 0 0 0 0 0 0 0 0 0 0 0 0 0 0 0 0 0 0 0 0 0 0 -16 0 0 21 0 0 11 0 0 0 -8 0 0 0 0 0 0 0 0 0 0 0 0 0 0 0 0 0 0 0 0 8 0 0 0 0 0 0 0 0 0 0 0 0 0 0 0 0 0
-27.4920 15.0422 -16.3716 0.0376 3.0806 -0.4081 0.0000 0.0000 0.0000 -23.6179 -19.3775 -1.8029 3.0090 10.7096 31.3067 1.8338 13.5235 -33.4653 0.0164 -0.8256 -2.2692 0.0000 0.0000 0.0000 27.3362 18.6373 0.2506 -2.6720 -10.1441 29.4445 -3.9897 -13.1855 -43.7541 -0.0275 -1.0709 2.9440 1.6359 3.0051 4.3732 -3.0266 4.0816 3.5058 -4.1475 2.1204 1.5007 12.3153 7.1881 -8.3887 -7.1143 9.3663 18.6519 -3.4437 4.7163 8.0759 -0.0000 0.0000 0.0000 -82.2808 4.6725 20.3542 17.2989 -27.2501 -4.2233 -0.0000 -0.0000 1.5672 21.6900 11.6915 4.6081 -7.1250 0.0000 -0.0000 -4.9506 42.4820 0.3084 -0.0000 0.0000 0.0000 90.6141 -7.8033 21.7353 -20.6167 31.3782 -5.8491 0.0000 -0.0000 -20.8331 -18.3402 2.2945 -0.7604 7.1250 -0.0000 -0.0000 6.3381 -27.5459 2.7038
-27.4993 15.0416 -16.3742 -0.2345 2.9998 -0.4044 0.0000 0.0000 0.0000 -23.2391 -19.2632 -1.9779 3.0330 10.7482 31.4353 1.8163 13.5340 -33.3721 0.0239 -0.9984 -2.7445 0.0000 0.0000 0.0000 27.7269 18.9020 0.3773 -2.6536 -10.1121 29.3404 -4.0764 -12.9235 -43.9698 -0.0361 -1.2261 3.3710 1.7059 3.0239 4.3658 -2.8457 4.1074 3.5362 -3.9984 2.1327 1.5295 12.1756 7.1781 -8.4096 -7.0813 9.3616 18.5877 -3.4102 4.7063 8.0485 0.0000 -0.0000 0.0000 -82.3891 4.8434 19.8048 17.1671 -27.0775 -4.1631 -0.0000 -0.0000 2.5788 21.7692 12.6769 5.0085 -7.1250 0.0000 -0.0000 -5.0418 43.5381 0.1824 0.0000 -0.0000 0.0000 90.4515 -7.7426 21.9107 -20.6954 31.4711 -5.8901 0.0000 -0.0000 -21.1284 -18.5052 2.1864 -0.7315 7.1250 -0.0000 -0.0000 6.2170 -27.6576 2.6351
-27.5032 15.0440 -16.3730 -0.3516 2.9597 -0.3860 0.0000 0.0000 0.0000 -23.0872 -19.2189 -2.0229 3.0377 10.7558 31.4608 1.7948 13.7260 -33.4014 0.0337 -1.1843 -3.2560 0.0000 0.0000 0.0000 27.9114 19.1283 0.4660 -2.6465 -10.0995 29.2994 -4.1339 -12.8379 -44.1625 -0.0558 -1.5240 4.1919 1.8214 3.0505 4.3615 -2.8231 4.1462 3.5328 -4.0403 2.1544 1.5385 12.0916 7.1551 -8.3904 -6.9447 9.3135 18.5160 -3.3573 4.6894 8.0055 -0.0000 0.0000 0.0000 -82.3331 5.0837 19.5530 17.1122 -27.0055 -4.1382 -0.0000 -0.0000 3.0484 21.9635 12.6537 5.0486 -7.1250 0.0000 -0.0000 -4.8619 43.5352 0.1762 -0.0000 0.0000 0.0000 90.4693 -7.7373 21.9262 -20.7356 31.5185 -5.9111 0.0000 -0.0000 -21.2227 -18.4458 2.2091 -0.7366 7.1250 -0.0000 -0.0000 6.2614 -27.6344 2.6576
-27.5043 15.0455 -16.3653 -0.2681 3.0502 -0.3532 0.0000 0.0000 0.0000 -23.2004 -19.3766 -1.9713 3.0432 10.7647 31.4902 1.8214 13.7109 -33.5429 0.0236 -0.9924 -2.7278 0.0000 0.0000 0.0000 27.8024 19.0430 0.4751 -2.6392 -10.0868 29.2581 -4.1487 -12.7801 -44.1921 -0.0595 -1.5745 4.3311 1.7431 3.0247 4.2570 -2.8221 4.1095 3.5481 -3.9877 2.1355 1.6035 12.0857 7.1519 -8.4008 -7.0143 9.3226 18.5089 -3.3784 4.6871 8.0087 0.0000 -0.0000 0.0000 -82.3776 5.2328 19.5882 17.0386 -26.9086 -4.1048 -0.0000 -0.0000 2.6572 22.4410 11.5524 4.7282 -7.1250 0.0000 -0.0000 -4.2568 42.4112 0.2724 0.0000 -0.0000 0.0000 90.4053 -7.7452 22.0049 -20.7523 31.5381 -5.9198 0.0000 -0.0000 -21.2476 -18.3310 2.1742 -0.7201 7.1250 -0.0000 -0.0000 6.3513 -27.6720 2.6905
-27.5065 15.0458 -16.3607 -0.2694 3.1027 -0.3304 0.0000 0.0000 0.0000 -23.1989 -19.4341 -1.9540 3.0429 10.7642 31.4887 1.8216 13.7455 -33.5717 0.0228 -0.9754 -2.6812 0.0000 0.0000 0.0000 27.8155 19.0541 0.4927 -2.6365 -10.0819 29.2424 -4.1771 -12.7226 -44.2787 -0.0641 -1.6340 4.4952 1.7162 3.0121 4.1935 -2.7892 4.0915 3.5602 -3.9341 2.1261 1.6453 12.0542 7.1514 -8.4125 -7.0325 9.3286 18.4967 -3.3784 4.6859 8.0064 0.0000 0.0000 0.0000 -82.4171 5.3686 19.5182 16.9366 -26.7741 -4.0587 -0.0000 -0.0000 2.5589 22.8426 11.0041 4.5970 -7.1250 0.0000 -0.0000 -3.8193 41.8639 0.2960 0.0000 0.0000 0.0000 90.3432 -7.7457 22.0828 -20.7838 31.5751 -5.9363 0.0000 -0.0000 -21.3239 -18.3247 2.0881 -0.6914 7.1250 -0.0000 -0.0000 6.3606 -27.7622 2.6809
-27.5079 15.0457 -16.3558 -0.2403 3.1809 -0.3044 0.0000 0.0000 0.0000 -23.2375 -19.5086 -1.9236 3.0402 10.7599 31.4744 1.8242 13.7548 -33.5941 0.0211 -0.9385 -2.5795 0.0000 0.0000 0.0000 27.7947 19.0556 0.5046 -2.6358 -10.0808 29.2389 -4.1994 -12.7266 -44.3738 -0.0650 -1.6445 4.5242 1.6753 2.9950 4.1244 -2.7685 4.0674 3.5694 -3.8849 2.1135 1.6867 12.0432 7.1542 -8.4278 -7.0693 9.3402 18.5020 -3.3871 4.6873 8.0131 -0.0000 0.0000 0.0000 -82.4595 5.4601 19.5157 16.8227 -26.6235 -4.0076 -0.0000 -0.0000 2.3441 23.0497 10.5020 4.4347 -7.1250 0.0000 -0.0000 -3.5684 41.3438 0.3223 -0.0000 0.0000 0.0000 90.2903 -7.7564 22.1433 -20.8088 31.6044 -5.9494 0.0000 -0.0000 -21.3673 -18.3285 1.9907 -0.6593 7.1250 -0.0000 -0.0000 6.3628 -27.8641 2.6664
